<?xml version="1.0" encoding="iso-8859-1"?>
<!-- Uploaded to: SVG Repo, www.svgrepo.com, Generator: SVG Repo Mixer Tools -->
<svg fill="#000000" version="1.1" id="Layer_1" xmlns="http://www.w3.org/2000/svg" xmlns:xlink="http://www.w3.org/1999/xlink" 
	 viewBox="0 0 512 512" xml:space="preserve">
<g>
	<g>
		<path d="M380.077,200.717c-33.676-34.312-77.489-53.21-123.922-53.21c-46.432,0-90.451,18.896-124.127,53.21
			c-32.655,33.272-51.187,77.885-51.187,122.399v7.773h350.316v-7.773C431.158,278.602,412.732,233.99,380.077,200.717z
			 M96.203,315.343c2.034-37.864,18.807-75.291,46.724-103.736c30.728-31.31,70.906-48.553,113.13-48.553
			c42.223,0,82.401,17.243,113.129,48.553c27.916,28.444,44.689,65.872,46.723,103.736H96.203z"/>
	</g>
</g>
<g>
	<g>
		<path d="M256,68.14C114.841,68.14,0,182.771,0,323.671V443.86h95.352v-48.713h321.296v48.713H512V323.671
			C512,182.771,397.159,68.14,256,68.14z M496.453,428.316h-64.259v-0.001v-48.713H79.806v48.713H15.547v-97.425h8.292v-15.547
			h-8.131c0.299-8.71,1.066-17.303,2.276-25.758l32.085,5.658l2.699-15.31l-32.088-5.658c1.827-8.681,4.13-17.188,6.873-25.499
			l8.05,2.93l5.318-14.61l-8.018-2.919c3.312-8.195,7.06-16.168,11.225-23.888l28.086,16.216l7.773-13.463l-28.034-16.185
			c4.676-7.468,9.741-14.668,15.187-21.558l6.373,5.347l9.993-11.91l-6.332-5.313c5.881-6.531,12.116-12.736,18.672-18.591
			l20.687,24.655l11.909-9.993l-20.683-24.65c6.903-5.41,14.116-10.439,21.595-15.082l4.085,7.075l13.463-7.773l-4.085-7.075
			c7.716-4.126,15.682-7.845,23.871-11.126l10.992,30.202l14.61-5.317l-8.2-22.53l-2.788-7.659
			c8.294-2.711,16.779-4.992,25.439-6.799l1.413,8.011l15.31-2.699l-1.407-7.981c8.42-1.193,16.977-1.95,25.651-2.244v31.465h15.547
			V83.806c9.067,0.269,18.007,1.05,26.798,2.299l-1.404,7.965l15.309,2.699l1.409-7.987c8.657,1.811,17.142,4.093,25.432,6.807
			l-10.977,30.157l14.61,5.318l10.979-30.162c8.184,3.283,16.147,7.003,23.86,11.132l-4.058,7.028l13.463,7.773l4.055-7.022
			c7.473,4.644,14.683,9.673,21.581,15.083l-20.639,24.597l11.909,9.993l20.639-24.597c6.551,5.854,12.78,12.059,18.656,18.587
			l-6.267,5.259l9.992,11.91l6.306-5.291c5.44,6.887,10.499,14.085,15.171,21.55l-27.951,16.137l7.773,13.463l28-16.165
			c4.159,7.715,7.904,15.683,11.213,23.874l-7.92,2.882l5.318,14.61l7.95-2.894c2.739,8.305,5.04,16.807,6.865,25.482l-31.979,5.639
			l2.7,15.31l31.974-5.638c1.208,8.447,1.974,17.034,2.273,25.738h-8.132v15.547h8.292V428.316z"/>
	</g>
</g>
<g>
	<g>
		<rect x="247.708" y="348.513" width="16.583" height="15.547"/>
	</g>
</g>
<g>
	<g>
		<rect x="279.838" y="348.513" width="15.547" height="15.547"/>
	</g>
</g>
<g>
	<g>
		<rect x="216.615" y="348.513" width="14.51" height="15.547"/>
	</g>
</g>
</svg>